# xmcd CD database file
#
# Track frame offsets:
#	150
#	9622
#	18563
#	40366
#	53701
#	89800
#	102393
#	118785
#	126909
#	147554
#	156061
#	171658
#	194562
#
# Disc length: 2844 seconds
#
# Revision: 0
# Processed by: cddbd v1.4PL0 Copyright (c) Steve Scherf et al.
# Submitted via: CDex 1.50beta10
#
DISCID=c50b1a0d
DTITLE=Jason - me and Mike
DYEAR=2000
DGENRE=New Age
TTITLE0=scottish blue (intro 2 )
TTITLE1=end of beginning
TTITLE2=lead the way, Yasujiro-san
TTITLE3=miss Juulia
TTITLE4=amazon
TTITLE5=Ding
TTITLE6=earthlight
TTITLE7=theme- power of will
TTITLE8=afternoon sun
TTITLE9=power of will
TTITLE10=me and Mike
TTITLE11=shape
TTITLE12=Yuki-chan
EXTD=YEAR: 2000
EXTT0=
EXTT1=
EXTT2=
EXTT3=
EXTT4=
EXTT5=
EXTT6=
EXTT7=
EXTT8=
EXTT9=
EXTT10=
EXTT11=
EXTT12=
PLAYORDER=
